<svg id="Layer_1" data-name="Layer 1" xmlns="http://www.w3.org/2000/svg" xmlns:xlink="http://www.w3.org/1999/xlink" viewBox="0 0 2400 400"><defs><style>.cls-1{fill:#7a1516;}.cls-2{fill:#660706;}.cls-3{font-size:98.71px;fill:#3968b2;}.cls-3,.cls-4{font-family:GeorgiaPro-Bold, Georgia Pro;font-weight:700;}.cls-4{font-size:40.47px;}.cls-5{letter-spacing:-0.03em;}</style></defs><path class="cls-1" d="M2140.14,96.2c-.57,1.89-.55,3.84-1.46,4.55-3.43,2.7-3.36,6.65-4.16,10.3-6,27.09-28.34,46.55-55.63,48.53a9.14,9.14,0,0,0-4.53,1.87c-3.6,2.72-7.1,2.7-10.72,0a9.09,9.09,0,0,0-4.95-1.86q-32.84-.18-65.66,0a10.11,10.11,0,0,0-5.29,2.05,8.43,8.43,0,0,1-10.44-.08,10,10,0,0,0-5.32-2q-32.61-.21-65.22,0a10.06,10.06,0,0,0-5.36,1.94c-3.52,2.49-7,2.55-10.38.06a10,10,0,0,0-4.9-2c-28.49-2-51.89-23.82-56.27-52.58a10.1,10.1,0,0,0-2.2-4.53c-3.06-3.75-3-7.74,0-11.54a10,10,0,0,0,2.16-4.54C1834.11,58,1857.5,36,1885.75,33.93a10.22,10.22,0,0,0,5-1.87c3.68-2.71,7-2.74,10.74-.09a9.16,9.16,0,0,0,5,1.84q32.83.19,65.65,0a10.13,10.13,0,0,0,5.32-2,8.33,8.33,0,0,1,10.42.07,10,10,0,0,0,5.34,1.93q32.61.19,65.22,0a10.2,10.2,0,0,0,5.35-1.94c3.55-2.47,6.95-2.5,10.42,0a10.38,10.38,0,0,0,4.93,2c28.67,2.13,51.78,23.76,56.23,52.62.24,1.6,1.42,3,2.18,4.55C2138.41,92.85,2139.32,94.6,2140.14,96.2Zm-200.62,55.71c10.72,0,21.45.1,32.17-.09a11.37,11.37,0,0,0,5.76-2c3.57-2.4,6.89-2.4,10.43.16a9.26,9.26,0,0,0,4.94,1.88q32.82.19,65.65,0a10.2,10.2,0,0,0,5.39-1.95c3.59-2.5,6.76-2.49,10.39.07a8.41,8.41,0,0,0,4.94,1.62c24.14-1.51,44.74-20.66,48.4-45a6.56,6.56,0,0,0-1-4.31c-2.63-3.74-2.8-7.19,0-10.93a6,6,0,0,0,1.12-3.88c-3.07-24.23-25-44.7-48.8-45.58a7.86,7.86,0,0,0-4.55,1.54c-3.8,2.77-7,2.74-10.69,0a9.16,9.16,0,0,0-5-1.79q-32.82-.18-65.65,0a9.2,9.2,0,0,0-5,1.79c-3.68,2.68-7.16,2.71-10.8.15a10.11,10.11,0,0,0-5.34-1.94q-32.61-.2-65.22,0a10.08,10.08,0,0,0-5.37,2c-3.55,2.52-6.77,2.51-10.37,0a8.58,8.58,0,0,0-5-1.64c-23.65,1-45.38,21.36-48.51,45.39a5.94,5.94,0,0,0,1,3.92c2.75,3.68,2.83,7.13.18,10.91a6.68,6.68,0,0,0-1.11,4.28c3.54,24.42,24.38,43.8,48.66,45.21a7.71,7.71,0,0,0,4.57-1.52c3.69-2.66,6.88-2.72,10.39-.35a11.43,11.43,0,0,0,5.76,2.08C1917.78,152,1928.65,151.91,1939.52,151.91Z"/><path class="cls-1" d="M1928.72,127.4c-14,.86-14,.87-21.81-10.28l-23.66-33.64v43.9h-14.7V62.08c4.74,0,9.35-.2,13.91.14,1.23.09,2.61,1.63,3.45,2.85,9.37,13.61,18.64,27.28,28.11,41.19V62.45h14.7Z"/><path class="cls-1" d="M2050.07,59.83c1.44,3.76,2.88,7.55,4.3,11.27-10.44,7-13,10-14.9,17.63a24.93,24.93,0,0,0,3.28-.28c5.92-1.37,11.83-2.8,17.73-4.24,3.54-.86,7.15-1,8.74-5.7,1-3,5.59-3.43,8.39-1.68s3.56,5.69,2,9a16.74,16.74,0,0,0-1.81,6.46c-.22,7.5-.08,15-.08,23.2,6-2.95,9.18-7.77,11.76-13.59l11.47,3.9c-3.55,15.6-20.72,27.16-38.82,26.3-18.93-.91-33.68-14.87-36.14-34.22C2024,82,2034.76,64.84,2050.07,59.83Zm.62,54.69-.09,1.77c4.55,1,9.06,2.51,13.64,2.77,8.74.51,9.27-.29,9.27-8.94V89.24l-1.05-.27Q2061.59,101.75,2050.69,114.52ZM2068.88,87l-.45-.79-29.75,7.22c-.38,8.13,2.69,14.12,8.43,19.35,6.52-7.66,13-15.2,19.38-22.76C2067.32,89,2068.08,88,2068.88,87Z"/><path class="cls-1" d="M1966.81,59.7c1.49,3.92,2.9,7.59,4.41,11.53-7.27,3.91-13,8.93-15.25,18,7.78-1.86,15.06-3.56,22.32-5.34,3.13-.76,6.31-.87,7.55-5.24.89-3.12,5.88-3.69,8.71-1.76s3.38,5.75,1.79,9a18.76,18.76,0,0,0-2,7.2c-.26,7.29-.09,14.6-.09,22.55,6.16-3.28,9.6-8,12-13.87l11.6,4c-4.19,16-21.19,27.22-39.27,26.19-17.55-1-32.94-14.71-35.46-31.6A37.41,37.41,0,0,1,1966.81,59.7Zm.46,55.09c5.43,4.07,14.75,5.75,20.53,3.55a4.57,4.57,0,0,0,2.13-3.43c.22-5.58.1-11.18.1-16.76V89.34l-1-.12Zm-3.32-2.05,21.79-25.67a230.35,230.35,0,0,0-28,5.88c-1.06.29-2.43,2.44-2.32,3.59A23,23,0,0,0,1964,112.74Z"/><path class="cls-2" d="M896.41,56.88c-.69.11-1.66.23-2.92.34q-9.45,1.11-13.74,5.67t-4.3,22.76v87.08H860.34l-76-94.3v57.2q0,16.83,3.91,22.11t17.56,7.6V172H753.42v-6.7q13.4-1.54,17-6.39t3.65-22.29V79q0-18.12-21.21-22V50.18h45.86l66.65,82.44v-46q0-16.74-3.95-22.11T844,56.88v-6.7h52.39Z"/><path class="cls-2" d="M1021.45,141.47Q1005,175.4,967.78,175.39q-27.75,0-45.69-17.39t-18-45.73q0-28.86,18.72-47.06T970.27,47a67.9,67.9,0,0,1,32.55,7.9l5.24-4.72h7.38l.86,44.48h-7.56q-6.36-20.26-15.37-29.84a29.16,29.16,0,0,0-22.07-9.57q-15.88,0-24.48,13.78t-8.59,40.41q0,26.44,9.75,40.15t27.53,13.69q22.92,0,38.56-26.28Z"/><path class="cls-2" d="M1147.18,141.47q-16.48,33.93-53.67,33.92-27.75,0-45.69-17.39t-18-45.73q0-28.86,18.72-47.06T1096,47a67.9,67.9,0,0,1,32.55,7.9l5.24-4.72h7.38l.86,44.48h-7.56q-6.36-20.26-15.37-29.84A29.16,29.16,0,0,0,1097,55.25q-15.88,0-24.48,13.78T1064,109.44q0,26.44,9.75,40.15t27.53,13.69q22.92,0,38.56-26.28Z"/><path class="cls-2" d="M1204,172V154.78q4.38-8.67,24.13-22.84,34.1-24.48,34.1-47.84,0-28.68-18.9-28.68a23.73,23.73,0,0,0-10,2q3.69,10.14,3.7,17a12.34,12.34,0,0,1-4.21,9.66q-4.21,3.73-11.34,3.73-6.62,0-10.31-3.69t-3.69-9.88q0-10.9,11.68-18.8t30.15-7.9q21.12,0,33.15,10.17t12,27.78a35.73,35.73,0,0,1-9,24q-9,10.47-39,22.5-18.46,7.47-24.22,13.91v.86h76.35V172Z"/><path class="cls-2" d="M1365.75,175.05q-25.08,0-38-16.62t-13-47.45q0-29.72,13.22-46.59t38-16.87q24.82,0,37.92,16.74t13.1,46.72q0,30.66-13.36,47.37T1365.75,175.05Zm.17-119.8q-18.81,0-18.8,55.73,0,56.34,18.63,56.34,18.81,0,18.81-56.34Q1384.56,55.24,1365.92,55.25Z"/><path class="cls-2" d="M1432.91,172V154.78q4.38-8.67,24.13-22.84,34.1-24.48,34.1-47.84,0-28.68-18.9-28.68a23.7,23.7,0,0,0-10,2q3.69,10.14,3.69,17a12.33,12.33,0,0,1-4.2,9.66q-4.21,3.73-11.34,3.73-6.62,0-10.31-3.69t-3.69-9.88q0-10.9,11.68-18.8t30.15-7.9q21.12,0,33.14,10.17t12,27.78a35.73,35.73,0,0,1-9,24q-9,10.47-39,22.5-18.47,7.47-24.22,13.91v.86h76.35V172Z"/><path class="cls-2" d="M1628.63,141.3V172h-28.85V141.3h-56.86V123.69l61.75-75.14h24v72.82h18.47V141.3Zm-28.85-72.14L1557,121.37h42.77Z"/><text class="cls-3" transform="translate(271.71 291.63) scale(0.83 1)">1</text><text class="cls-3" transform="translate(325.27 258.76) scale(0.49 0.58)">st </text><text class="cls-3" transform="translate(381.11 291.63) scale(0.83 1)">National Conference on Communications</text><text class="cls-4" transform="translate(280.42 360.73)">27th December - 29th December 2024, Galgotias College Of Engineering And <tspan class="cls-5" x="1602.87" y="0">T</tspan><tspan x="1629.34" y="0">echnology</tspan></text><image width="717" height="157" transform="translate(256.66 56.38) scale(0.65)" xlink:href="C:%5CUsers%5CVidhan%5CAppData%5CLocal%5CPackages%5C5319275A.WhatsAppDesktop_cv1g1gvanyjgm%5CTempState%5C56A32DDF374ECD774959BE244161CB72%5Cgcet-removebg-preview.png"/></svg>